<svg id="AI_and_Automation" viewBox="0 0 64 64" xmlns="http://www.w3.org/2000/svg" data-name="AI and Automation"><g fill="#733381"><path d="m42 27h5c.28 0 .55-.12.74-.33l4.2-4.6c.37-.41.34-1.04-.06-1.41-.41-.37-1.04-.34-1.41.06l-3.9 4.27h-4.56c-.55 0-1 .45-1 1s.45 1 1 1z"/><path d="m47.74 37.33c-.19-.21-.46-.33-.74-.33h-5c-.55 0-1 .45-1 1s.45 1 1 1h4.56l3.9 4.27c.2.22.47.33.74.33.24 0 .48-.09.67-.26.41-.37.44-1 .06-1.41l-4.2-4.6z"/><path d="m54 31h-12c-.55 0-1 .45-1 1s.45 1 1 1h12c.55 0 1-.45 1-1s-.45-1-1-1z"/><path d="m24 25h-3c-.55 0-1 .45-1 1s.45 1 1 1h3c.55 0 1-.45 1-1s-.45-1-1-1z"/><path d="m24 37h-3c-.55 0-1 .45-1 1s.45 1 1 1h3c.55 0 1-.45 1-1s-.45-1-1-1z"/><path d="m24 31h-3c-.55 0-1 .45-1 1s.45 1 1 1h3c.55 0 1-.45 1-1s-.45-1-1-1z"/><path d="m27 19c-.55 0-1 .45-1 1v3c0 .55.45 1 1 1s1-.45 1-1v-3c0-.55-.45-1-1-1z"/><path d="m39 19c-.55 0-1 .45-1 1v3c0 .55.45 1 1 1s1-.45 1-1v-3c0-.55-.45-1-1-1z"/><path d="m33 19c-.55 0-1 .45-1 1v3c0 .55.45 1 1 1s1-.45 1-1v-3c0-.55-.45-1-1-1z"/><path d="m27 40c-.55 0-1 .45-1 1v3c0 .55.45 1 1 1s1-.45 1-1v-3c0-.55-.45-1-1-1z"/><path d="m39 40c-.55 0-1 .45-1 1v3c0 .55.45 1 1 1s1-.45 1-1v-3c0-.55-.45-1-1-1z"/><path d="m33 40c-.55 0-1 .45-1 1v3c0 .55.45 1 1 1s1-.45 1-1v-3c0-.55-.45-1-1-1z"/></g><rect fill="#b04da0" height="20" rx="1" width="20" x="23" y="22"/><g fill="#fff"><path d="m31.94 27.65c-.15-.39-.52-.65-.94-.65s-.79.26-.94.65l-3 8c-.19.52.07 1.09.59 1.29.52.19 1.09-.07 1.29-.59l.51-1.35h3.11l.51 1.35c.15.4.53.65.94.65.12 0 .24-.02.35-.06.52-.19.78-.77.58-1.29zm-1.74 5.35.81-2.15.81 2.15h-1.61z"/><path d="m37 27c-.55 0-1 .45-1 1v8c0 .55.45 1 1 1s1-.45 1-1v-8c0-.55-.45-1-1-1z"/></g><path d="m33 15c.55 0 1-.45 1-1v-11c0-.55-.45-1-1-1h-5.27c-.46 0-.86.31-.97.76l-1.43 5.74c-1.22.4-2.4.88-3.52 1.45l-5.07-3.04c-.39-.24-.9-.17-1.22.15l-7.45 7.45c-.32.32-.39.83-.15 1.22l3.04 5.07c-.57 1.12-1.06 2.3-1.45 3.52l-5.74 1.43c-.45.11-.76.51-.76.97v10.54c0 .46.31.86.76.97l5.74 1.43c.4 1.22.88 2.4 1.45 3.52l-3.04 5.07c-.24.39-.17.9.15 1.22l7.45 7.45c.32.32.83.39 1.22.15l5.07-3.04c1.12.57 2.3 1.06 3.52 1.45l1.43 5.74c.11.45.51.76.97.76h5.27c.55 0 1-.45 1-1v-11c0-.55-.45-1-1-1-9.37 0-17-7.63-17-17s7.63-17 17-17z" fill="#e55c7a"/><g fill="#fd9e8e"><circle cx="57" cy="32" r="4"/><circle cx="53" cy="19" r="4"/><circle cx="53" cy="45" r="4"/></g></svg>