<?xml version="1.0" encoding="iso-8859-1"?>
<!-- Generator: Adobe Illustrator 19.0.0, SVG Export Plug-In . SVG Version: 6.00 Build 0)  -->
<svg version="1.1" id="Capa_1" xmlns="http://www.w3.org/2000/svg" xmlns:xlink="http://www.w3.org/1999/xlink" x="0px" y="0px"
	 viewBox="0 0 512 512" style="enable-background:new 0 0 512 512;" xml:space="preserve">
<path style="fill:#FE9923;" d="M497,241H287c-8.291,0-15-6.709-15-15V15c0-8.291,6.709-15,15-15c124.072,0,225,101.928,225,226
	C512,234.291,505.291,241,497,241z"/>
<path style="fill:#FD003A;" d="M314.9,478.4L242,283.299V76c0-8.401-6.599-15-15-15C102.8,61,0,161.8,0,286s102.8,226,227,226
	c5.099,0,9.901-0.3,15-0.601c21.899-1.199,43.2-6,63.9-13.801C313.7,494.9,317.601,486.2,314.9,478.4z"/>
<path style="fill:#1689FC;" d="M360.74,498.641c-2.124,0-4.233-0.454-6.196-1.348c-3.633-1.641-6.445-4.658-7.852-8.379
	l-73.74-197.641c-1.729-4.614-1.084-9.771,1.714-13.813c2.813-4.043,7.412-6.46,12.334-6.46h210c8.291,0,15,6.709,15,15
	c0,93.164-58.667,178.817-145.972,211.674C364.314,498.318,362.527,498.641,360.74,498.641z"/>
<path style="fill:#E50027;" d="M305.9,497.599c-20.7,7.8-42.001,12.601-63.9,13.801V283.3l72.9,195.1
	C317.601,486.2,313.7,494.9,305.9,497.599z"/>
<g>
</g>
<g>
</g>
<g>
</g>
<g>
</g>
<g>
</g>
<g>
</g>
<g>
</g>
<g>
</g>
<g>
</g>
<g>
</g>
<g>
</g>
<g>
</g>
<g>
</g>
<g>
</g>
<g>
</g>
</svg>
