<svg id="Layer_1" enable-background="new 0 0 512 512" viewBox="0 0 512 512" xmlns="http://www.w3.org/2000/svg"><g id="Layer_2_1_"><g id="Layer_1-2"><g id="HTML"><g id="File"><path d="m299.5 3.9h-188.1c-18.2.1-32.9 14.8-33 33v438.2c0 18.2 14.8 32.9 32.9 32.9h330.4c18.2 0 32.9-14.8 33-32.9l-.9-325.5z" fill="#eaeaea"/><g fill="#1565c0"><path d="m441.7 512h-330.3c-20.4 0-36.9-16.5-36.9-36.9v-438.2c0-20.4 16.5-36.9 36.9-36.9h189.6l176.8 147.8.9 327.3c-.1 20.4-16.6 36.9-37 36.9zm-330.3-504.1c-16 0-29 13-29 29v438.2c0 16 13 29 29 29h330.4c16 0 29-13 29-29l-.9-323.6-171.8-143.6z"/><path d="m299.5 3.9-.5 142.3s.5 3.4 3.5 3.4h171.3z"/></g></g><path d="m47 246.9h332c7.5 0 13.6 6.1 13.6 13.6v148c0 7.5-6.1 13.6-13.6 13.6h-332c-7.5 0-13.6-6.1-13.6-13.6v-148c0-7.6 6.1-13.6 13.6-13.6z" fill="#1565c0"/><g fill="#fff"><path d="m55.1 298.5h22.8v25.8h24.9v-25.8h22.9v73.8h-22.9v-29.8h-24.9v29.8h-22.8z"/><path d="m135.6 298.5h69.3v18.2h-23.2v55.5h-22.8v-55.5h-23.2v-18.2z"/><path d="m215 298.5h30l11.6 44.9 11.5-44.9h30v73.8h-18.7v-56.3l-14.4 56.2h-17l-14.4-56.2v56.3h-18.6z"/><path d="m312.5 298.5h22.8v55.6h35.6v18.2h-58.4z"/></g></g></g></g></svg>