<svg clip-rule="evenodd" fill-rule="evenodd" height="512" image-rendering="optimizeQuality" shape-rendering="geometricPrecision" text-rendering="geometricPrecision" viewBox="0 0 512 512" width="512" xmlns="http://www.w3.org/2000/svg" xmlns:xodm="http://www.corel.com/coreldraw/odm/2003"><g id="Layer_x0020_1"><g id="_1810530921520"><path d="m446.85 511.96h-381.7c-5.67 0-10.27-4.61-10.27-10.27v-491.37c0-5.67 4.6-10.28 10.27-10.28h267.4c1.59 0 3.12.63 4.25 1.76 1.12 1.12 1.75 2.65 1.75 4.24v101.89h112.57c3.32 0 6 2.69 6 6v387.76c0 5.66-4.61 10.27-10.27 10.27z" fill="#ccc"/><g fill="#fff"><path d="m135.62 240.91c-9.37 0-16.21-2.4-20.82-7.28-8.49-8.99-6.58-23.35-4.74-37.23 2.34-17.55 3.05-28.45-6.61-31.86-2.4-.84-4-3.11-4-5.66 0-2.54 1.6-4.8 4-5.65 9.66-3.41 8.95-14.31 6.61-31.86-1.84-13.88-3.75-28.24 4.74-37.23 5.35-5.66 13.69-7.98 25.5-7.1 3.3.25 5.78 3.13 5.53 6.43-.24 3.31-3.11 5.78-6.43 5.54-7.86-.59-13.2.54-15.88 3.37-4.56 4.84-3.04 16.31-1.56 27.41 1.79 13.5 3.94 29.65-5.32 39.1 9.26 9.44 7.11 25.59 5.32 39.09-1.48 11.1-3 22.57 1.56 27.41 2.68 2.83 8.02 3.96 15.88 3.37 3.32-.24 6.19 2.23 6.43 5.54.25 3.3-2.23 6.18-5.53 6.43-1.63.12-3.19.18-4.68.18z"/><path d="m257.81 240.91c-1.49 0-3.05-.06-4.68-.18-3.3-.25-5.78-3.13-5.53-6.43.24-3.31 3.13-5.78 6.43-5.54 7.86.59 13.2-.54 15.87-3.37 4.57-4.84 3.05-16.31 1.57-27.41-1.79-13.5-3.94-29.65 5.31-39.1-9.25-9.44-7.1-25.59-5.31-39.09 1.48-11.1 3-22.57-1.57-27.41-2.67-2.83-8.01-3.96-15.87-3.37-3.31.25-6.19-2.23-6.43-5.54-.25-3.3 2.23-6.18 5.53-6.43 11.81-.88 20.15 1.44 25.5 7.1 8.49 8.99 6.58 23.35 4.74 37.23-2.34 17.55-3.06 28.45 6.61 31.86 2.4.84 4 3.11 4 5.65 0 2.55-1.6 4.81-4 5.66-9.67 3.41-8.95 14.31-6.61 31.86 1.84 13.88 3.75 28.23-4.74 37.23-4.61 4.88-11.45 7.28-20.82 7.28z"/><path d="m162.3 167.79h-10.75c-3.32 0-6-2.69-6-6s2.68-6 6-6h10.75c3.31 0 5.99 2.69 5.99 6s-2.68 6-5.99 6z"/><path d="m202.09 167.79h-10.75c-3.31 0-6-2.69-6-6s2.69-6 6-6h10.75c3.31 0 6 2.69 6 6s-2.69 6-6 6z"/><path d="m241.88 167.79h-10.74c-3.32 0-6-2.69-6-6s2.68-6 6-6h10.74c3.32 0 6 2.69 6 6s-2.68 6-6 6z"/></g><path d="m451.12 119.93h-118.57c-3.31 0-5.99-2.69-5.99-6v-107.89c0-2.37 1.4-4.52 3.57-5.48 2.17-.96 4.71-.55 6.46 1.05l118.57 107.88c1.83 1.67 2.45 4.3 1.56 6.61s-3.12 3.83-5.6 3.83z" fill="#b3b3b3"/><path d="m405.91 459.67h-299.82c-6.64 0-12.05-5.4-12.05-12.05v-154.54c0-6.64 5.41-12.05 12.05-12.05h299.82c6.64 0 12.05 5.41 12.05 12.05v154.54c0 6.65-5.41 12.05-12.05 12.05z" fill="#ed2a48"/><path d="m144.66 414h-14.8c-3.31 0-6-2.68-6-6 0-3.31 2.69-6 6-6h14.8c4.67 0 8.47-3.8 8.47-8.46v-60.84c0-3.31 2.69-6 6-6s6 2.69 6 6v60.84c0 11.28-9.18 20.46-20.47 20.46z" fill="#fff"/><path d="m208.64 414c-13.66 0-24.77-11.11-24.77-24.77 0-3.31 2.69-5.99 6-5.99s6 2.68 6 5.99c0 7.05 5.73 12.77 12.77 12.77s12.77-5.72 12.77-12.77c0-7.04-5.73-12.77-12.77-12.77-13.66 0-24.77-11.11-24.77-24.76 0-13.66 11.11-24.77 24.77-24.77 13.65 0 24.77 11.11 24.77 24.77 0 3.31-2.69 6-6 6-3.32 0-6-2.69-6-6 0-7.05-5.73-12.77-12.77-12.77s-12.77 5.72-12.77 12.77c0 7.04 5.73 12.77 12.77 12.77 13.65 0 24.77 11.11 24.77 24.76 0 13.66-11.12 24.77-24.77 24.77z" fill="#fff"/><path d="m276.74 413.94c-13.56 0-24.59-11.03-24.59-24.59v-37.8c0-13.56 11.03-24.59 24.59-24.59 13.57 0 24.6 11.03 24.6 24.59v37.8c0 13.56-11.03 24.59-24.6 24.59zm0-74.99c-6.94 0-12.59 5.66-12.59 12.6v37.8c0 6.95 5.65 12.6 12.59 12.6 6.95 0 12.6-5.65 12.6-12.6v-37.8c0-6.94-5.65-12.6-12.6-12.6z" fill="#fff"/><path d="m382.14 413.97c-1.86 0-3.66-.86-4.81-2.4l-45.25-60.54v56.94c0 3.32-2.69 6-6 6s-6-2.68-6-6v-74.98c0-2.59 1.66-4.88 4.11-5.7 2.45-.81 5.15.04 6.69 2.1l45.25 60.54v-56.94c0-3.32 2.69-6 6-6 3.32 0 6 2.68 6 6v74.98c0 2.59-1.65 4.88-4.1 5.7-.62.2-1.26.3-1.89.3z" fill="#fff"/></g></g></svg>