<svg height="512" viewBox="0 0 512 512" width="512" xmlns="http://www.w3.org/2000/svg"><g id="Layer_2" data-name="Layer 2"><g id="refresh_"><circle id="background" cx="256" cy="256" fill="#ff2147" r="256"/><g fill="#fff"><path d="m381.73 250.86-.34.06a17 17 0 0 1 -19.39-13.62 103.7 103.7 0 0 0 -175.17-54.09 106.15 106.15 0 0 0 -8.5 9.75l21 21a8.13 8.13 0 0 1 -4.54 13.79l-69.49 10.48a8.13 8.13 0 0 1 -9.25-9.23l10.3-69.67a8.13 8.13 0 0 1 13.79-4.56l13.74 13.74q4.11-4.93 8.69-9.54a137 137 0 0 1 97.55-40.41 137.91 137.91 0 0 1 135.58 112.38 17 17 0 0 1 -13.97 19.92z"/><path d="m391.94 296.78-10.48 69.5a8.13 8.13 0 0 1 -13.79 4.53l-13.45-13.46a137.9 137.9 0 0 1 -226.41-66.91 17 17 0 0 1 14.92-21.22c.52-.05 1-.08 1.54-.08a17 17 0 0 1 16.48 12.86c4.39 17.42 13.48 33.1 27.15 46.78a103.77 103.77 0 0 0 142 4.3l-21.47-21.46a8.13 8.13 0 0 1 4.57-13.79l69.68-10.3a8.12 8.12 0 0 1 9.26 9.25z"/></g></g></g></svg>