<svg id="Layer_1" enable-background="new 0 0 512 512" height="512" viewBox="0 0 512 512" width="512" xmlns="http://www.w3.org/2000/svg"><g><g clip-rule="evenodd" fill-rule="evenodd"><path d="m168.584 0h173.398l153.062 153.091v293.98c0 35.698-29.202 64.929-64.929 64.929h-261.53c-35.698 0-64.9-29.231-64.9-64.929v-382.142c0-35.698 29.202-64.929 64.899-64.929z" fill="#e5252a"/><path d="m341.982 0 153.062 153.091h-136.559c-9.1 0-16.503-7.432-16.503-16.532z" fill="#b71d21"/><path d="m31.206 218.02h352.618c7.842 0 14.25 6.408 14.25 14.25v129.36c0 7.842-6.408 14.25-14.25 14.25h-352.618c-7.842 0-14.25-6.408-14.25-14.25v-129.36c0-7.842 6.409-14.25 14.25-14.25z" fill="#b71d21"/></g><path d="m117.759 244.399h-26.598c-4.565 0-8.266 3.701-8.266 8.266v43.598 10.738 34.206c0 4.565 3.701 8.266 8.266 8.266s8.266-3.701 8.266-8.266v-25.94h18.331c19.224 0 34.864-15.64 34.864-34.863v-1.141c.001-19.224-15.639-34.864-34.863-34.864zm18.332 36.004c0 10.108-8.224 18.331-18.332 18.331h-18.332v-2.472-35.332h18.331c10.108 0 18.332 8.224 18.332 18.331v1.142zm70.62-36.004h-26.597c-4.565 0-8.266 3.701-8.266 8.266v88.542c0 4.565 3.701 8.266 8.266 8.266h26.597c19.224 0 34.864-15.64 34.864-34.863v-35.347c0-19.224-15.64-34.864-34.864-34.864zm18.332 70.21c0 10.108-8.224 18.331-18.332 18.331h-18.331v-72.01h18.331c10.108 0 18.332 8.224 18.332 18.331zm53.897-53.678v22.882h38.317c4.565 0 8.266 3.701 8.266 8.266s-3.701 8.266-8.266 8.266h-38.317v40.862c0 4.565-3.701 8.266-8.266 8.266s-8.266-3.701-8.266-8.266v-88.542c0-4.565 3.701-8.266 8.266-8.266h53.195c4.565 0 8.266 3.701 8.266 8.266s-3.701 8.266-8.266 8.266z" fill="#fff"/></g></svg>