<svg id="Layer_1" enable-background="new 0 0 512 512" height="512" viewBox="0 0 512 512" width="512" xmlns="http://www.w3.org/2000/svg"><g id="Layer_2_1_"><g id="Layer_1-2"><g id="yaml"><path d="m359.9 141c-13.3 0-24.1-10.8-24.1-24.1v-116.9h-165.3c-34.1 0-61.7 27.6-61.7 61.7v388.6c0 34.1 27.6 61.7 61.7 61.7h243.5c34.1 0 61.7-27.6 61.7-61.7v-309.3z" fill="#999ca3"/><path d="m359.9 141h115.9l-140-141v116.9c0 13.3 10.8 24.1 24.1 24.1z" fill="#c694ff"/><path d="m61.8 220h343.8c13.4 0 24.3 10.9 24.3 24.3v118.5c0 13.4-10.9 24.3-24.3 24.3h-343.8c-14.1 0-25.5-11.4-25.5-25.5v-116c0-14.2 11.4-25.6 25.5-25.6z" fill="#c694ff"/><path d="m179.9 351v-31.9l-18.8-63.1h19.2l9.4 35.6 9.4-35.6h17.8l-18.7 63.1v31.9z" fill="#fff"/><path d="m181.9 318.8-18.1-60.8h15l10.9 41.5 10.9-41.5h13.6l-18.1 60.8v30.2h-14.3z" fill="#252a3f"/><path d="m243.7 351-2.5-16.5h-14.1l-2.5 16.5h-17.2l15.2-95h24.4l15.2 95zm-5-32.9-4.6-30.5-4.6 30.5z" fill="#fff"/><path d="m259.9 349h-14.4l-2.5-16.5h-17.6l-2.4 16.5h-13.1l14.6-91h20.9zm-32.6-28.9h13.7l-6.9-46z" fill="#252a3f"/><path d="m310.9 351v-40.7l-6.1 40.7h-17l-6.9-42v42h-16.5v-95h23.6l8.7 53.7 8.1-53.7h23.7v95z" fill="#fff"/><path d="m296.8 322.6 9.8-64.6h19.9v91h-13.5v-65.3l-10 65.3h-13.5l-10.7-64.4v64.4h-12.5v-91h19.9z" fill="#252a3f"/><path d="m334.9 351v-95h18.2v78h23.6v17z" fill="#fff"/><path d="m336.9 258h14.3v78h23.5v13h-37.8z" fill="#252a3f"/></g></g></g></svg>